<svg width="8" height="16" viewBox="0 0 8 16" xmlns="http://www.w3.org/2000/svg">
<path d="M7.70888 0.669067L5.85738 0.666016C3.77727 0.666016 2.43301 2.08274 2.43301 4.2755V5.93972H0.571405C0.41054 5.93972 0.280273 6.07368 0.280273 6.23893V8.65019C0.280273 8.81543 0.410689 8.94925 0.571405 8.94925H2.43301V15.0336C2.43301 15.1989 2.56328 15.3327 2.72415 15.3327H5.15302C5.31388 15.3327 5.44415 15.1987 5.44415 15.0336V8.94925H7.6208C7.78167 8.94925 7.91193 8.81543 7.91193 8.65019L7.91283 6.23893C7.91283 6.15959 7.88208 6.0836 7.82757 6.02745C7.77305 5.9713 7.69878 5.93972 7.62155 5.93972H5.44415V4.52894C5.44415 3.85087 5.60145 3.50664 6.46133 3.50664L7.70859 3.50618C7.8693 3.50618 7.99957 3.37221 7.99957 3.20712V0.968129C7.99957 0.803187 7.86945 0.669372 7.70888 0.669067Z"/>
</svg>
